REM DIRINDEX 1\2,1\3,1\4,1\5
REM DIRNAME "folder01","folder02","folder03","folder04","folder05"
TITLE ""
FILE "P1Q_t_1359-1368.mp3" MP3
  TRACK 01 AUDIO
    TITLE "3:cjc173_5048"
    INDEX 01 00:00:00
  TRACK 02 AUDIO
    TITLE "0:"
    INDEX 01 00:01:23
  TRACK 03 AUDIO
    TITLE "4:cjc173_5049"
    INDEX 01 00:01:45
  TRACK 04 AUDIO
    TITLE "0:"
    INDEX 01 00:06:58
  TRACK 05 AUDIO
    TITLE "5:cjc173_5050"
    INDEX 01 00:07:04
  TRACK 06 AUDIO
    TITLE "0:"
    INDEX 01 00:11:10
  TRACK 07 AUDIO
    TITLE "3:cjc173_5051"
    INDEX 01 00:11:55
  TRACK 08 AUDIO
    TITLE "0:"
    INDEX 01 00:12:62
  TRACK 09 AUDIO
    TITLE "4:cjc173_5052"
    INDEX 01 00:13:07
  TRACK 10 AUDIO
    TITLE "0:"
    INDEX 01 00:18:06
  TRACK 11 AUDIO
    TITLE "5:cjc173_5053"
    INDEX 01 00:18:28
  TRACK 12 AUDIO
    TITLE "0:"
    INDEX 01 00:23:21
  TRACK 13 AUDIO
    TITLE "3:cjc173_5054"
    INDEX 01 00:23:64
  TRACK 14 AUDIO
    TITLE "0:"
    INDEX 01 00:25:26
  TRACK 15 AUDIO
    TITLE "4:cjc173_5055"
    INDEX 01 00:25:46
  TRACK 16 AUDIO
    TITLE "0:"
    INDEX 01 00:28:67
  TRACK 17 AUDIO
    TITLE "5:cjc173_5056"
    INDEX 01 00:29:12
  TRACK 18 AUDIO
    TITLE "0:"
    INDEX 01 00:33:53
  TRACK 19 AUDIO
    TITLE "3:cjc173_5057"
    INDEX 01 00:34:25
  TRACK 20 AUDIO
    TITLE "0:"
    INDEX 01 00:35:38
  TRACK 21 AUDIO
    TITLE "4:cjc173_5058"
    INDEX 01 00:35:60
  TRACK 22 AUDIO
    TITLE "0:"
    INDEX 01 00:39:67
  TRACK 23 AUDIO
    TITLE "5:cjc173_5059"
    INDEX 01 00:40:12
  TRACK 24 AUDIO
    TITLE "0:"
    INDEX 01 00:45:07
  TRACK 25 AUDIO
    TITLE "3:cjc173_5060"
    INDEX 01 00:45:54
  TRACK 26 AUDIO
    TITLE "0:"
    INDEX 01 00:46:75
  TRACK 27 AUDIO
    TITLE "4:cjc173_5061"
    INDEX 01 00:47:22
  TRACK 28 AUDIO
    TITLE "0:"
    INDEX 01 00:50:34
  TRACK 29 AUDIO
    TITLE "5:cjc173_5062"
    INDEX 01 00:50:53
  TRACK 30 AUDIO
    TITLE "0:"
    INDEX 01 00:56:17
  TRACK 31 AUDIO
    TITLE "3:cjc173_5063"
    INDEX 01 00:56:62
  TRACK 32 AUDIO
    TITLE "0:"
    INDEX 01 00:58:08
  TRACK 33 AUDIO
    TITLE "4:cjc173_5064"
    INDEX 01 00:58:29
  TRACK 34 AUDIO
    TITLE "0:"
    INDEX 01 01:00:16
  TRACK 35 AUDIO
    TITLE "5:cjc173_5065"
    INDEX 01 01:00:36
  TRACK 36 AUDIO
    TITLE "0:"
    INDEX 01 01:05:23
  TRACK 37 AUDIO
    TITLE "3:cjc173_5066"
    INDEX 01 01:05:69
  TRACK 38 AUDIO
    TITLE "0:"
    INDEX 01 01:06:70
  TRACK 39 AUDIO
    TITLE "4:cjc173_5067"
    INDEX 01 01:07:15
  TRACK 40 AUDIO
    TITLE "0:"
    INDEX 01 01:10:32
  TRACK 41 AUDIO
    TITLE "5:cjc173_5068"
    INDEX 01 01:10:52
  TRACK 42 AUDIO
    TITLE "0:"
    INDEX 01 01:15:41
  TRACK 43 AUDIO
    TITLE "3:cjc173_5069"
    INDEX 01 01:16:12
  TRACK 44 AUDIO
    TITLE "0:"
    INDEX 01 01:17:42
  TRACK 45 AUDIO
    TITLE "4:cjc173_5070"
    INDEX 01 01:17:66
  TRACK 46 AUDIO
    TITLE "0:"
    INDEX 01 01:20:72
  TRACK 47 AUDIO
    TITLE "5:cjc173_5071"
    INDEX 01 01:21:19
  TRACK 48 AUDIO
    TITLE "0:"
    INDEX 01 01:27:04
  TRACK 49 AUDIO
    TITLE "3:cjc173_5072"
    INDEX 01 01:27:49
  TRACK 50 AUDIO
    TITLE "0:"
    INDEX 01 01:28:68
  TRACK 51 AUDIO
    TITLE "4:cjc173_5073"
    INDEX 01 01:29:16
  TRACK 52 AUDIO
    TITLE "0:"
    INDEX 01 01:31:33
  TRACK 53 AUDIO
    TITLE "5:cjc173_5074"
    INDEX 01 01:31:52
  TRACK 54 AUDIO
    TITLE "0:"
    INDEX 01 01:37:37
  TRACK 55 AUDIO
    TITLE "3:cjc173_5075"
    INDEX 01 01:38:09
  TRACK 56 AUDIO
    TITLE "0:"
    INDEX 01 01:39:22
  TRACK 57 AUDIO
    TITLE "4:cjc173_5076"
    INDEX 01 01:39:44
  TRACK 58 AUDIO
    TITLE "0:"
    INDEX 01 01:41:68
  TRACK 59 AUDIO
    TITLE "5:cjc173_5077"
    INDEX 01 01:42:13
  TRACK 60 AUDIO
    TITLE "0:"
    INDEX 01 01:46:44
